<?xml version="1.0" encoding="utf-8" ?>
<svg baseProfile="full" height="200mm" version="1.1" viewBox="0,0,200,200" width="200mm" xmlns="http://www.w3.org/2000/svg" xmlns:ev="http://www.w3.org/2001/xml-events" xmlns:xlink="http://www.w3.org/1999/xlink"><defs /><rect fill="#1a1a1a" height="200" width="200" x="0" y="0" /><text alignment-baseline="middle" fill="#e1ed5e" style="dominant-baseline: central; font-size:9.0px; font-family:Arial;" text-anchor="middle" x="100.0" y="100.0">2024</text><line stroke="#e1ed5e" stroke-width="0.3" x1="100.0" x2="100.0" y1="15.0" y2="10.0" /><path d="M 100.0 14.0 a86.0,86.0 0 0,1 42.35913384403234,11.155469271406648" fill="none" id="id37" stroke="none" /><text fill="#e1ed5e" style="font-size:6.75px; font-family:Arial;" text-anchor="middle"><textPath startOffset="22.145653131862478" xlink:href="#id37">January</textPath></text><line stroke="#e1ed5e" stroke-width="0.3" x1="143.13028292997686" x2="145.6673583964461" y1="26.7553504044142" y2="22.446841604673864" /><path d="M 143.63769802327073 25.89364864446614 a86.0,86.0 0 0,1 29.32050498858742,28.57503671076993" fill="none" id="id38" stroke="none" /><text fill="#e1ed5e" style="font-size:6.75px; font-family:Arial;" text-anchor="middle"><textPath startOffset="20.669276256404974" xlink:href="#id38">February</textPath></text><line stroke="#e1ed5e" stroke-width="0.3" x1="172.87174338648825" x2="177.1583165268699" y1="56.24261187166439" y2="53.66864786411523" /><path d="M 173.72905801456457 55.72781907015455 a86.0,86.0 0 0,1 12.242430191666344,42.057860355516425" fill="none" id="id39" stroke="none" /><text fill="#e1ed5e" style="font-size:6.75px; font-family:Arial;" text-anchor="middle"><textPath startOffset="22.145653131862474" xlink:href="#id39">March</textPath></text><line stroke="#e1ed5e" stroke-width="0.3" x1="184.99686870605535" x2="189.99668451229388" y1="99.2704041080226" y2="99.22748670261217" /><path d="M 185.99683186730306 99.26182062694052 a86.0,86.0 0 0,1 -10.086455211305974,41.156179273409016" fill="none" id="id40" stroke="none" /><text fill="#e1ed5e" style="font-size:6.75px; font-family:Arial;" text-anchor="middle"><textPath startOffset="21.40746469413373" xlink:href="#id40">April</textPath></text><path d="M 120.51834098615036 104.47187691870673 l 15.220743861792473 3.317290282242608 a36.57804411737733,36.57804411737733 0 0,0 -0.13897764885863292,0.6123611639682754 l -15.161555351376174 -3.5780857801499004" fill="#ffa70f" stroke="none" /><path d="M 120.43855184770803 104.8234425847677 l 17.310816120823652 4.0853054696058395 a38.78634519930836,38.78634519930836 0 0,0 -0.15849296280692587,0.6467053741084485 l -17.23813563150043 -4.381866668322387" fill="#ffc512" stroke="none" /><path d="M 120.35273937422433 105.17358676015961 l 12.269493101780526 3.1188571669930596 a33.659689214303164,33.659689214303164 0 0,0 -0.14715778774840924,0.5587820893742174 l -12.214145833227386 -3.32901976074008" fill="#ff7f0b" stroke="none" /><path d="M 120.26092885502905 105.52220625578681 l 9.221805698075519 2.513444150558911 a30.558195532161754,30.558195532161754 0 0,0 -0.14228697326736273,0.5049262718801246 l -9.177300232733577 -2.671378346342044" fill="#ff5207" stroke="none" /><path d="M 120.05942366710727 106.21446072829308 l 10.943351934371021 3.3902784028413677 a32.456480227725905,32.456480227725905 0 0,0 -0.16944644926841132,0.5307885889325911 l -10.883540769325355 -3.5776360254653423" fill="#ff6e0a" stroke="none" /><path d="M 119.94978838288452 106.5578916946017 l 15.201420001722406 4.997008693133485 a37.00166447429822,37.00166447429822 0 0,0 -0.2035348415652075,0.6017145933162754 l -15.113399738584834 -5.257224960923921" fill="#ffad10" stroke="none" /><path d="M 119.83427380445688 106.89939002012753 l 9.515515892066487 3.309990374708661 a31.07477438818527,31.07477438818527 0 0,0 -0.1795823493177615,0.5023237925303969 l -9.457293372704783 -3.472849123619979" fill="#ff5a08" stroke="none" /><path d="M 119.71291397450082 107.23885506374661 l 11.756036408883702 4.316979407413671 a33.52360584061287,33.52360584061287 0 0,0 -0.20300828718214112,0.5385036005860514 l -11.68019743788712 -4.518151288193882" fill="#ff7d0b" stroke="none" /><path d="M 119.58574465831526 107.57618678355244 l 24.787689863950224 9.588410939602772 a47.577569360987,47.577569360987 0 0,0 -0.301191672035273,0.7591997664913257 l -24.619439516948827 -10.012511723307663" fill="#c8ff1d" stroke="none" /><path d="M 119.4528033332814 107.91128576633889 l 8.72920179546548 3.550090376836018 a30.423486916723633,30.423486916723633 0 0,0 -0.2009024454491396,0.4820927331106781 l -8.666973505479856 -3.699415619387974" fill="#ff5007" stroke="none" /><path d="M 119.31412917781788 108.2440532568976 l 11.574910864072764 4.940641161127392 a33.5852491669516,33.5852491669516 0 0,0 -0.23088438303455905,0.5283086521844441 l -11.488392599021239 -5.13861188308768" fill="#ff7e0b" stroke="none" /><path d="M 119.16976305983485 108.57439118712176 l 14.300426132349976 6.396398714923072 a36.66576216106537,36.66576216106537 0 0,0 -0.2619254253375932,0.5723543243758566 l -14.188516242157327 -6.6409420215136175" fill="#ffa90f" stroke="none" /><path d="M 118.5362547648365 109.86951160357373 l 8.341316479969493 4.441281199064583 a30.4500020797974,30.4500020797974 0 0,0 -0.24962426010760586,0.45928052283162396 l -8.263846870246548 -4.58381655537081" fill="#ff5007" stroke="none" /><line stroke="#e1ed5e" stroke-width="0.3" x1="174.33088141563837" x2="178.70328620479359" y1="141.23008692659167" y2="143.65538615756765" /><path d="M 175.20536237346943 141.71514677278685 a86.0,86.0 0 0,1 -30.301960400862466,31.631185727798858" fill="none" id="id41" stroke="none" /><text fill="#e1ed5e" style="font-size:6.75px; font-family:Arial;" text-anchor="middle"><textPath startOffset="22.145653131862474" xlink:href="#id41">May</textPath></text><path d="M 118.18653347947321 110.5 l 13.688969865122793 7.903330436557315 a36.80666087311464,36.80666087311464 0 0,0 -0.3206145674300377,0.544473628535647 l -13.55128158756299 -8.137155233386512" fill="#ffaa0f" stroke="none" /><path d="M 117.81537515405839 111.11811171558189 l 24.24211444456061 15.128872352438083 a49.57556458584046,49.57556458584046 0 0,0 -0.4567616511913426,0.7181051817665227 l -23.978835101743375 -15.542791208883278" fill="#b0ff20" stroke="none" /><path d="M 117.62189284568427 111.42229804090321 l 23.621286790273505 15.311032713164655 a49.14947445996013,49.14947445996013 0 0,0 -0.464990448337333,0.7040548041245914 l -23.354971903015446 -15.714267395628307" fill="#b6ff1f" stroke="none" /><path d="M 117.423217284605 111.72311816256416 l 8.074557548709826 5.432922674825935 a30.732169768251303,30.732169768251303 0 0,0 -0.29826340993826445,0.4351752288099253 l -7.980104401956241 -5.570732638705905" fill="#ff5507" stroke="none" /><path d="M 117.21940702142032 112.02048342749411 l 13.312780859034081 9.293354962270964 a37.23565769087999,37.23565769087999 0 0,0 -0.37037936609197997,0.5209849622871402 l -13.151286394412141 -9.520517151267608" fill="#ffb010" stroke="none" /><path d="M 116.79662413953412 112.60449989151573 l 7.5422509371552415 5.659845712413169 a30.429708515502526,30.429708515502526 0 0,0 -0.3171181684906006,0.4151178621841649 l -7.443980791310336 -5.788484487838211" fill="#ff5007" stroke="none" /><path d="M 116.35404254752997 113.17365903436017 l 17.095208096803205 13.770689536498278 a42.951720437898004,42.951720437898004 0 0,0 -0.46746439644070653,0.5702305550100083 l -16.85629688112387 -14.06212237320678" fill="#fffc17" stroke="none" /><path d="M 116.1254893667686 113.45245675266167 l 12.002817771885416 10.013177480313834 a36.63110225535463,36.63110225535463 0 0,0 -0.40696358575719205,0.4794020807265911 l -11.82915962262111 -10.217746343489981" fill="#ffa80f" stroke="none" /><path d="M 115.89218393027572 113.72728997021213 l 18.951913549580755 16.370211540898868 a46.04313984077398,46.04313984077398 0 0,0 -0.5217979934624696,0.5937103314237755 l -18.6681044921597 -16.693134150133936" fill="#dbff1b" stroke="none" /><path d="M 115.6541949942343 113.99807769240083 l 11.721507096955076 10.481443924496768 a36.72432495741354,36.72432495741354 0 0,0 -0.42425741284278373,0.46633321567389513 l -11.539851983270413 -10.681114715728334" fill="#ffa90f" stroke="none" /><path d="M 115.41159269507618 114.26474011684316 l 6.930409742181446 6.4146837923533395 a30.443449970768317,30.443449970768317 0 0,0 -0.35828195529606743,0.3804830206466949 l -6.819271953149119 -6.532708272944531" fill="#ff5007" stroke="none" /><path d="M 115.16444852881244 114.52719865689866 l 18.168966812603962 17.40545920781773 a46.16071074656897,46.16071074656897 0 0,0 -0.5530782900998348,0.5675070491804306 l -17.867501721353317 -17.7147889490659" fill="#daff1c" stroke="none" /><path d="M 114.91283532996324 114.78537596483092 l 8.943221319200152 8.866783989452882 a33.593691511221564,33.593691511221564 0 0,0 -0.4095360218825777,0.40603573503617857 l -8.78969337718761 -9.018999734717722" fill="#ff7e0b" stroke="none" /><path d="M 114.65682725009322 115.03919595460226 l 10.955916588062438 11.241735582924369 a36.69741148090887,36.69741148090887 0 0,0 -0.45492123361917913,0.4358042510725432 l -10.761322868577945 -11.428151964302492" fill="#ffa90f" stroke="none" /><path d="M 114.39649973595853 115.28858382429668 l 21.91289691119323 23.27073715169584 a52.964077628236026,52.964077628236026 0 0,0 -0.6672722919165331,0.61761727160105 l -21.510194847962726 -23.643472169429273" fill="#89ff24" stroke="none" /><path d="M 114.13192950727249 115.5334660781643 l 8.596258150396467 9.44879355006764 a33.77401087129871,33.77401087129871 0 0,0 -0.4322027574078762,0.38647837076857927 l -8.432790366165213 -9.594967450719606" fill="#ff800b" stroke="none" /><path d="M 113.86319453409587 115.77377054828091 l 10.892460576662351 12.393620634832486 a37.49992514692988,37.49992514692988 0 0,0 -0.4871785279733041,0.4208132091908529 l -10.67810256892619 -12.578777976488055" fill="#ffb410" stroke="none" /><path d="M 113.31354834802062 116.24036423190432 l 10.242393602299277 12.494054804900854 a37.15574300898251,37.15574300898251 0 0,0 -0.4967355346023834,0.4001349846121529 l -10.026407297341642 -12.66803808330641" fill="#ffaf10" stroke="none" /><path d="M 112.45986205192187 116.90419585922612 l 11.155347355804516 15.134371134641361 a39.80135538384721,39.80135538384721 0 0,0 -0.5534643611875093,0.4006655155453013 l -10.893901984243037 -15.32363742155974" fill="#ffd313" stroke="none" /><path d="M 112.16784306229584 117.11559508785304 l 9.116086143918501 12.822916800166 a36.73309320659235,36.73309320659235 0 0,0 -0.5170706032495508,0.3609554387949517 l -8.894620449495193 -12.977517054766075" fill="#ffa90f" stroke="none" /><path d="M 111.8722381534696 117.32195027204791 l 2.9553097759328155 4.311885283588654 a26.227447806583292,26.227447806583292 0 0,0 -0.3735584282233891,0.2513467818916538 l -2.880855059612423 -4.361981739537429" fill="#ff1201" stroke="none" /><path d="M 111.5731344415666 117.5232005979908 l 7.228689184166705 10.945156757163955 a34.11679853318562,34.11679853318562 0 0,0 -0.4914677017943633,0.31856342655878905 l -7.039735850115332 -11.067634025426639" fill="#ff850c" stroke="none" /><path d="M 111.27062007382361 117.71928675628689 l 3.372931660886039 5.3028087999707445 a27.284620048821935,27.284620048821935 0 0,0 -0.39736264491776513,0.24798367924283482 l -3.2814048871785593 -5.359928276055127" fill="#ff2203" stroke="none" /><path d="M 110.96478420261333 117.91015095944535 l 3.6618663890024896 5.981383546492626 a28.013288428487655,28.013288428487655 0 0,0 -0.41228523020734,0.24756543482268256 l -3.558648402237713 -6.043362981851232" fill="#ff2c04" stroke="none" /><line stroke="#e1ed5e" stroke-width="0.3" x1="143.1302829299769" x2="145.66735839644613" y1="173.24464959558577" y2="177.55315839532614" /><path d="M 143.63769802327073 174.10635135553383 a86.0,86.0 0 0,1 -40.68552437913181,11.842963189579606" fill="none" id="id42" stroke="none" /><text fill="#e1ed5e" style="font-size:6.75px; font-family:Arial;" text-anchor="middle"><textPath startOffset="21.407464694133747" xlink:href="#id42">June</textPath></text><path d="M 110.34350942703117 118.27599006163325 l 2.010924786286261 3.5531114142763736 a25.082697541866345,25.082697541866345 0 0,0 -0.3765460084188671,0.20886372343897242 l -1.9496345897112999 -3.58710805314849" fill="#ff0000" stroke="none" /><path d="M 108.4095320186766 119.2426549942271 l 3.8239593315933926 8.749967295015624 a30.549062395519428,30.549062395519428 0 0,0 -0.4823332179421051,0.20587936943345794 l -3.6731910384808564 -8.814321314108486" fill="#ff5207" stroke="none" /><path d="M 108.07796709384702 119.3841803445677 l 5.196824631201007 12.470487277303027 a34.509997749105445,34.509997749105445 0 0,0 -0.5487837996496043,0.22318559379754727 l -4.981986370360962 -12.557860127679866" fill="#ff8b0c" stroke="none" /><path d="M 107.74402155503746 119.51999308798841 l 3.4588143447129207 8.71847161343609 a30.37950659392501,30.37950659392501 0 0,0 -0.4864015604113482,0.1881505726627153 l -3.308640521808043 -8.776562074236846" fill="#ff4f07" stroke="none" /><path d="M 107.407793817531 119.65005319985036 l 5.539191899275321 14.693364608414306 a36.70278989265282,36.70278989265282 0 0,0 -0.591458203058713,0.21719164471291566 l -5.286144544562481 -14.786287102135944" fill="#ffa90f" stroke="none" /><path d="M 107.06938296918513 119.77432235084164 l 21.208148907555366 59.32296705252492 a84.0,84.0 0 0,0 -1.3619769118199128,0.4737662697256382 l -20.186666223690434 -59.678291754819156" fill="#4dd2ff" stroke="none" /><path d="M 106.72888874123015 119.89276391827305 l 2.399914034362673 7.094919405815458 a28.48982434689544,28.48982434689544 0 0,0 -0.4646246212962704,0.15273134163770513 l -2.2777666754186687 -7.135071668855182" fill="#ff3404" stroke="none" /><path d="M 106.38641147887787 120.00534299687104 l 1.9511493148504004 6.111947438837831 a27.415830822579217,27.415830822579217 0 0,0 -0.4495665786362854,0.13927687525088206 l -1.8459421033424908 -6.144540901895358" fill="#ff2403" stroke="none" /><line stroke="#e1ed5e" stroke-width="0.3" x1="101.45913802915013" x2="101.54496967792366" y1="184.9874750549273" y2="189.98673829345242" /><path d="M 101.47630435890484 185.9873277026323 a86.0,86.0 0 0,1 -42.54439059252881,-10.42667462771756" fill="none" id="id43" stroke="none" /><text fill="#e1ed5e" style="font-size:6.75px; font-family:Arial;" text-anchor="middle"><textPath startOffset="22.145653131862474" xlink:href="#id43">July</textPath></text><line stroke="#e1ed5e" stroke-width="0.3" x1="58.13341422392154" x2="55.67067388415222" y1="173.97424548756322" y2="178.32567169271397" /><path d="M 57.64086615596768 174.84453072859336 a86.0,86.0 0 0,1 -31.369924170532247,-30.572349798747897" fill="none" id="id44" stroke="none" /><text fill="#e1ed5e" style="font-size:6.75px; font-family:Arial;" text-anchor="middle"><textPath startOffset="22.145653131862474" xlink:href="#id44">August</textPath></text><line stroke="#e1ed5e" stroke-width="0.3" x1="26.387840678322732" x2="22.057713659400548" y1="142.50000000000003" y2="145.00000000000006" /><path d="M 25.521815274538298 143.00000000000003 a86.0,86.0 0 0,1 -11.493303480769221,-40.785679425670985" fill="none" id="id45" stroke="none" /><text fill="#e1ed5e" style="font-size:6.75px; font-family:Arial;" text-anchor="middle"><textPath startOffset="21.40746469413373" xlink:href="#id45">September</textPath></text><line stroke="#e1ed5e" stroke-width="0.3" x1="15.003131293944662" x2="10.003315487706104" y1="100.72959589197737" y2="100.7725132973878" /><path d="M 14.003168132696942 100.73817937305945 a86.0,86.0 0 0,1 10.791469493833604,-42.45332614584628" fill="none" id="id46" stroke="none" /><text fill="#e1ed5e" style="font-size:6.75px; font-family:Arial;" text-anchor="middle"><textPath startOffset="22.145653131862435" xlink:href="#id46">October</textPath></text><line stroke="#e1ed5e" stroke-width="0.3" x1="26.387840678322718" x2="22.05771365940052" y1="57.49999999999999" y2="54.99999999999999" /><path d="M 25.521815274538284 56.99999999999999 a86.0,86.0 0 0,1 29.574782752854787,-30.34633250058573" fill="none" id="id47" stroke="none" /><text fill="#e1ed5e" style="font-size:6.75px; font-family:Arial;" text-anchor="middle"><textPath startOffset="21.40746469413373" xlink:href="#id47">November</textPath></text><line stroke="#e1ed5e" stroke-width="0.3" x1="56.869717070023135" x2="54.33264160355391" y1="26.7553504044142" y2="22.446841604673864" /><path d="M 56.362301976729285 25.89364864446614 a86.0,86.0 0 0,1 42.16139366436587,-11.88097634709845" fill="none" id="id48" stroke="none" /><text fill="#e1ed5e" style="font-size:6.75px; font-family:Arial;" text-anchor="middle"><textPath startOffset="22.145653131862474" xlink:href="#id48">December</textPath></text></svg>