<?xml version="1.0" encoding="utf-8" ?>
<svg baseProfile="full" height="200mm" version="1.1" viewBox="0,0,200,200" width="200mm" xmlns="http://www.w3.org/2000/svg" xmlns:ev="http://www.w3.org/2001/xml-events" xmlns:xlink="http://www.w3.org/1999/xlink"><defs /><rect fill="#1a1a1a" height="200" width="200" x="0" y="0" /><text alignment-baseline="middle" fill="#e1ed5e" style="dominant-baseline: central; font-size:9.0px; font-family:Arial;" text-anchor="middle" x="100.0" y="100.0">2024</text><line stroke="#e1ed5e" stroke-width="0.3" x1="100.0" x2="100.0" y1="15.0" y2="10.0" /><path d="M 100.0 14.0 a86.0,86.0 0 0,1 42.35913384403234,11.155469271406648" fill="none" id="id37" stroke="none" /><text fill="#e1ed5e" style="font-size:6.75px; font-family:Arial;" text-anchor="middle"><textPath startOffset="22.145653131862478" xlink:href="#id37">January</textPath></text><line stroke="#e1ed5e" stroke-width="0.3" x1="143.13028292997686" x2="145.6673583964461" y1="26.7553504044142" y2="22.446841604673864" /><path d="M 143.63769802327073 25.89364864446614 a86.0,86.0 0 0,1 29.32050498858742,28.57503671076993" fill="none" id="id38" stroke="none" /><text fill="#e1ed5e" style="font-size:6.75px; font-family:Arial;" text-anchor="middle"><textPath startOffset="20.669276256404974" xlink:href="#id38">February</textPath></text><line stroke="#e1ed5e" stroke-width="0.3" x1="172.87174338648825" x2="177.1583165268699" y1="56.24261187166439" y2="53.66864786411523" /><path d="M 173.72905801456457 55.72781907015455 a86.0,86.0 0 0,1 12.242430191666344,42.057860355516425" fill="none" id="id39" stroke="none" /><text fill="#e1ed5e" style="font-size:6.75px; font-family:Arial;" text-anchor="middle"><textPath startOffset="22.145653131862474" xlink:href="#id39">March</textPath></text><line stroke="#e1ed5e" stroke-width="0.3" x1="184.99686870605535" x2="189.99668451229388" y1="99.2704041080226" y2="99.22748670261217" /><path d="M 185.99683186730306 99.26182062694052 a86.0,86.0 0 0,1 -10.086455211305974,41.156179273409016" fill="none" id="id40" stroke="none" /><text fill="#e1ed5e" style="font-size:6.75px; font-family:Arial;" text-anchor="middle"><textPath startOffset="21.40746469413373" xlink:href="#id40">April</textPath></text><path d="M 120.51834098615036 104.47187691870673 l 19.826325535621805 4.3210553721354925 a41.291739791686425,41.291739791686425 0 0,0 -0.15688725441732282,0.6912741906038589 l -19.749227419646818 -4.660763896678368" fill="#ffe315" stroke="none" /><path d="M 120.43855184770803 104.8234425847677 l 22.548824079503387 5.32146108549803 a44.168241526988226,44.168241526988226 0 0,0 -0.1804850502312627,0.7364405956179801 l -22.454151502755828 -5.707757505724111" fill="#f6ff19" stroke="none" /><path d="M 120.35273937422433 105.17358676015961 l 15.982068064597167 4.06257920462959 a37.490331998334824,37.490331998334824 0 0,0 -0.16390508788429306,0.6223743158169354 l -15.909973495908144 -4.336334024819329" fill="#ffb010" stroke="none" /><path d="M 120.26092885502905 105.52220625578681 l 12.012193586362981 3.2739767778154345 a33.450370223328086,33.450370223328086 0 0,0 -0.15575369719526658,0.5527149242859809 l -11.954221397093134 -3.479699626004424" fill="#ff770b" stroke="none" /><path d="M 120.05942366710727 106.21446072829308 l 14.254655348767253 4.416128665028669 a35.92304900140138,35.92304900140138 0 0,0 -0.18754446130553534,0.5874803538715742 l -14.176746171684464 -4.660178052591626" fill="#ff9a0e" stroke="none" /><path d="M 119.94978838288452 106.5578916946017 l 19.80115454898456 6.509032801155702 a41.84354167312486,41.84354167312486 0 0,0 -0.23016852744239027,0.680452353116325 l -19.686500599969804 -6.847986828746187" fill="#ffea16" stroke="none" /><path d="M 119.83427380445688 106.89939002012753 l 12.394776328183712 4.311546615897153 a34.12325853005866,34.12325853005866 0 0,0 -0.19719965965497538,0.5516025450157837 l -12.318936498484792 -4.523684117293858" fill="#ff810b" stroke="none" /><path d="M 119.71291397450082 107.23885506374661 l 15.313246643367526 5.623236278011948 a37.31307172174991,37.31307172174991 0 0,0 -0.22595608645893658,0.5993753645303139 l -15.21445987309415 -5.885279922736421" fill="#ffad10" stroke="none" /><path d="M 119.58574465831526 107.57618678355244 l 32.288093997321525 12.489728385422966 a55.6195656980487,55.6195656980487 0 0,0 -0.3521018457955852,0.8875266613542601 l -32.06893347655981 -13.042156063990792" fill="#6dff28" stroke="none" /><path d="M 119.4528033332814 107.91128576633889 l 11.370534714631976 4.6242974805398385 a33.27490068738554,33.27490068738554 0 0,0 -0.21973184528359557,0.527276438111047 l -11.289477024811895 -4.818806428092163" fill="#ff750a" stroke="none" /><path d="M 119.31412917781788 108.2440532568976 l 15.07731507216142 6.435609251732623 a37.39336744620252,37.39336744620252 0 0,0 -0.25706358554863945,0.5882117907757071 l -14.964617604595816 -6.6934831122841745" fill="#ffaf10" stroke="none" /><path d="M 119.16976305983485 108.57439118712176 l 18.627532686480286 8.33185843801218 a41.40600007392351,41.40600007392351 0 0,0 -0.2957877742524392,0.6463496679357873 l -18.48176044737279 -8.650397088162656" fill="#ffe415" stroke="none" /><path d="M 118.5362547648365 109.86951160357373 l 10.865280792396591 5.785150032576752 a33.30943896353709,33.30943896353709 0 0,0 -0.2730654675846159,0.5024097043510997 l -10.764369975196635 -5.970814570402455" fill="#ff750a" stroke="none" /><line stroke="#e1ed5e" stroke-width="0.3" x1="174.33088141563837" x2="178.70328620479359" y1="141.23008692659167" y2="143.65538615756765" /><path d="M 175.20536237346943 141.71514677278685 a86.0,86.0 0 0,1 -30.301960400862466,31.631185727798858" fill="none" id="id41" stroke="none" /><text fill="#e1ed5e" style="font-size:6.75px; font-family:Arial;" text-anchor="middle"><textPath startOffset="22.145653131862474" xlink:href="#id41">May</textPath></text><path d="M 118.18653347947321 110.5 l 17.83105840671308 10.29476637105173 a41.58953274210347,41.58953274210347 0 0,0 -0.36227709152141113,0.6152257027405531 l -17.651707605061905 -10.599343242085833" fill="#ffe715" stroke="none" /><path d="M 117.81537515405839 111.11811171558189 l 31.57743517753779 19.706655007791593 a58.222126000374004,58.222126000374004 0 0,0 -0.5364262541428884,0.8433511695451962 l -31.23449123176901 -20.24581985201546" fill="#51ff2b" stroke="none" /><path d="M 117.62189284568427 111.42229804090321 l 30.768753861619306 19.943934515563694 a57.66710703284356,57.66710703284356 0 0,0 -0.5455735640747001,0.8260679120692566 l -30.42185585862388 -20.469182305972012" fill="#57ff2a" stroke="none" /><path d="M 117.423217284605 111.72311816256416 l 10.517804383969214 7.076848184230272 a33.676986601005986,33.676986601005986 0 0,0 -0.3268435953532362,0.4768745734595582 l -10.394771051800657 -7.256357492759874" fill="#ff7a0b" stroke="none" /><path d="M 117.21940702142032 112.02048342749411 l 17.34103993157409 12.105392645269294 a42.14833792534503,42.14833792534503 0 0,0 -0.41924530546007716,0.5897210256576128 l -17.130679527584054 -12.401290897636411" fill="#ffee16" stroke="none" /><path d="M 116.79662413953412 112.60449989151573 l 9.82442932547834 7.372434921356194 a33.28300485390082,33.28300485390082 0 0,0 -0.34685332380872774,0.4540421350069026 l -9.696424024315307 -7.5399979696039745" fill="#ff750a" stroke="none" /><path d="M 116.35404254752997 113.17365903436017 l 22.267976118908503 17.937505294070647 a49.594000360339436,49.594000360339436 0 0,0 -0.5397555490017252,0.6584140067574646 l -21.95677375066815 -18.317121582526603" fill="#b3ff20" stroke="none" /><path d="M 116.1254893667686 113.45245675266167 l 15.63470055412405 13.043023269644594 a41.36085257128535,41.36085257128535 0 0,0 -0.4595100839457911,0.5413017234664704 l -15.408495906671144 -13.309491775560621" fill="#ffe415" stroke="none" /><path d="M 115.89218393027572 113.72728997021213 l 24.686494363797788 21.323605866042865 a53.62083952175599,53.62083952175599 0 0,0 -0.6076745974966731,0.6914221426639282 l -24.316808702342527 -21.744240286518085" fill="#84ff25" stroke="none" /><path d="M 115.6541949942343 113.99807769240083 l 15.268269250341657 13.652980512475795 a41.482283143609074,41.482283143609074 0 0,0 -0.47922367928417586,0.5267507711656153 l -15.0316478702156 -13.91306885919908" fill="#ffe515" stroke="none" /><path d="M 115.41159269507618 114.26474011684316 l 9.027453644276266 8.355676321084674 a33.300904279047614,33.300904279047614 0 0,0 -0.3919106773273255,0.4161955580765183 l -8.882687133212679 -8.50941333910569" fill="#ff750a" stroke="none" /><path d="M 115.16444852881244 114.52719865689866 l 23.666639025234407 22.672104825140984 a53.77398571966689,53.77398571966689 0 0,0 -0.6442973600855334,0.661105850947216 l -23.273954863998068 -23.075033368155935" fill="#82ff25" stroke="none" /><path d="M 114.91283532996324 114.78537596483092 l 11.649313517236608 11.549747333323138 a37.40436432436431,37.40436432436431 0 0,0 -0.4559914042590358,0.4520940652482647 l -11.449330192847608 -11.748021408800064" fill="#ffaf10" stroke="none" /><path d="M 114.65682725009322 115.03919595460226 l 14.271021888838511 14.643325666357669 a41.44722603001975,41.44722603001975 0 0,0 -0.5138025390558844,0.492211209731892 l -14.017546863917316 -14.88614900639514" fill="#ffe515" stroke="none" /><path d="M 114.39649973595853 115.28858382429668 l 28.543429383922035 30.31213286372696 a62.63595513187106,62.63595513187106 0 0,0 -0.789124236819391,0.7304016126592252 l -28.018875375788674 -30.797652222518565" fill="#31ff3f" stroke="none" /><path d="M 114.13192950727249 115.5334660781643 l 11.197364204112656 12.307864749815392 a37.63924577074609,37.63924577074609 0 0,0 -0.48166579536141607,0.4307085243108623 l -10.984433381927861 -12.49826880400964" fill="#ffb210" stroke="none" /><path d="M 113.86319453409587 115.77377054828091 l 14.188364986479852 16.143754832377244 a42.49256897342593,42.49256897342593 0 0,0 -0.5520402273115621,0.47683920024931 l -13.909145279405434 -16.38493816509127" fill="#fff316" stroke="none" /><path d="M 113.31354834802062 116.24036423190432 l 13.341596946053665 16.274578960866393 a42.04424219173557,42.04424219173557 0 0,0 -0.5620899336346167,0.45277986227735084 l -13.060256242063796 -16.501207116937145" fill="#ffed16" stroke="none" /><path d="M 112.45986205192187 116.90419585922612 l 14.530797584361432 19.713817643665475 a45.49037942795865,45.49037942795865 0 0,0 -0.6325740303932058,0.45793481528650015 l -14.190242543594257 -19.960353230325055" fill="#e5ff1a" stroke="none" /><path d="M 112.16784306229584 117.11559508785304 l 11.87448479136385 16.702949941524427 a41.49370454089261,41.49370454089261 0 0,0 -0.5840829879844555,0.40773528778398754 l -11.586006712205636 -16.904330045113536" fill="#ffe615" stroke="none" /><path d="M 111.8722381534696 117.32195027204791 l 3.849544687716027 5.616600744414472 a27.809199528937295,27.809199528937295 0 0,0 -0.3960873716264863,0.26650526044805634 l -3.7525610279925377 -5.68185567891965" fill="#ff2403" stroke="none" /><path d="M 111.5731344415666 117.5232005979908 l 9.415988223865924 14.257006285393723 a38.0857561276561,38.0857561276561 0 0,0 -0.5486423064272192,0.3556233145178303 l -9.169860285181693 -14.416543441615447" fill="#ffb811" stroke="none" /><path d="M 111.27062007382361 117.71928675628689 l 4.3935330444655945 6.907363692341817 a29.186257129549077,29.186257129549077 0 0,0 -0.4250573512658589,0.26526722429567057 l -4.27431156441002 -6.981766713479035" fill="#ff3905" stroke="none" /><path d="M 110.96478420261333 117.91015095944535 l 4.769895332025206 7.791265553312398 a30.135410248079076,30.135410248079076 0 0,0 -0.4435175321611703,0.26631953476903486 l -4.635445043306599 -7.871999088617356" fill="#ff4706" stroke="none" /><line stroke="#e1ed5e" stroke-width="0.3" x1="143.1302829299769" x2="145.66735839644613" y1="173.24464959558577" y2="177.55315839532614" /><path d="M 143.63769802327073 174.10635135553383 a86.0,86.0 0 0,1 -40.68552437913181,11.842963189579606" fill="none" id="id42" stroke="none" /><text fill="#e1ed5e" style="font-size:6.75px; font-family:Arial;" text-anchor="middle"><textPath startOffset="21.407464694133747" xlink:href="#id42">June</textPath></text><path d="M 110.34350942703117 118.27599006163325 l 2.6194021660559548 4.628232641152987 a26.318064035734487,26.318064035734487 0 0,0 -0.3950915544640652,0.21915062520822484 l -2.539566423435795 -4.6725161817943555" fill="#ff0d01" stroke="none" /><path d="M 108.4095320186766 119.2426549942271 l 4.981035304947375 11.397583560452482 a33.438473528798816,33.438473528798816 0 0,0 -0.5279535696186527,0.22535198481038102 l -4.784646660158292 -11.481410194922267" fill="#ff770b" stroke="none" /><path d="M 108.07796709384702 119.3841803445677 l 6.769310214093249 16.243880232968007 a38.5979318613761,38.5979318613761 0 0,0 -0.61379081678009,0.24962338173614615 l -6.489464936122719 -16.357690871283445" fill="#ffbf11" stroke="none" /><path d="M 107.74402155503746 119.51999308798841 l 4.505402612923343 11.356557731384449 a33.217612541360296,33.217612541360296 0 0,0 -0.5318420338165779,0.20572792394840697 l -4.309788316613236 -11.432225543470896" fill="#ff740a" stroke="none" /><path d="M 107.407793817531 119.65005319985036 l 7.215272971972771 19.139368784154765 a41.4542318730369,41.4542318730369 0 0,0 -0.6680267512229022,0.2453086761837084 l -6.885657069095743 -19.2604083093472" fill="#ffe515" stroke="none" /><path d="M 107.06938296918513 119.77432235084164 l 13.662960184675763 38.21773132622297 a61.586592228609184,61.586592228609184 0 0,0 -0.998565674917064,0.3473529769674066 l -13.004888737713676 -38.446642735758964" fill="#30ff31" stroke="none" /><path d="M 106.72888874123015 119.89276391827305 l 3.126094055246677 9.241741603825405 a30.756139190997942,30.756139190997942 0 0,0 -0.5015846833646764,0.1648808481597045 l -2.9669866342342663 -9.29404337338713" fill="#ff5007" stroke="none" /><path d="M 106.38641147887787 120.00534299687104 l 2.5415394829641285 7.961336231614258 a29.357170426423018,29.357170426423018 0 0,0 -0.48140079184394746,0.14913919587774652 l -2.4044980582485564 -8.003792015298648" fill="#ff3b05" stroke="none" /><path d="M 106.0420521117495 120.11202640906438 l 8.25430676733751 27.475902660684223 a49.68900150281826,49.68900150281826 0 0,0 -0.8190166840455159,0.2384038202485993 l -7.781430070910387 -27.613550175235343" fill="#b2ff20" stroke="none" /><path d="M 105.69591212413111 120.21278271476187 l 11.156450882493463 39.59030838983551 a62.13221261609652,62.13221261609652 0 0,0 -1.0290828166170645,0.28048109779700253 l -10.475186664941704 -39.77598998177666" fill="#30ff38" stroke="none" /><path d="M 105.3480935250658 120.30758222061773 l 6.27992863271307 23.845911903132432 a45.65897439318842,45.65897439318842 0 0,0 -0.7596668557017695,0.19310434406525587 l -5.869656483785904 -23.950201479032955" fill="#e3ff1b" stroke="none" /><path d="M 104.9986988182912 120.39639698878246 l 2.9789414285227416 12.15509759462787 a33.5148108083781,33.5148108083781 0 0,0 -0.5599652136262402,0.13215026570956576 l -2.7698440611566224 -12.20444400398366" fill="#ff780b" stroke="none" /><path d="M 104.64783097203109 120.47920084513623 l 8.26822366147567 36.43131904211072 a58.357790749243264,58.357790749243264 0 0,0 -0.9788479611885522,0.2133353572550934 l -7.641613283667981 -36.56788585749953" fill="#50ff2b" stroke="none" /><path d="M 104.29559338865022 120.5559693870025 l 4.591227461260062 21.97068544517962 a43.445275416712,43.445275416712 0 0,0 -0.7313360736611018,0.14628769699351704 l -4.213394902068002 -22.046262538835997" fill="#ffff18" stroke="none" /><path d="M 103.94208987418118 120.62667999033965 l 4.6535450419628 24.349314060511162 a45.79000961425758,45.79000961425758 0 0,0 -0.7733393314543009,0.14092818747951824 l -4.234870976957441 -24.425610421922045" fill="#e1ff1b" stroke="none" /><path d="M 103.58742460773223 120.69131181640829 l 1.7616036968060171 10.160461995211778 a31.312043228223178,31.312043228223178 0 0,0 -0.5303999143644613,0.08727710406783046 l -1.5869262793884835 -10.189205097775279" fill="#ff5808" stroke="none" /><path d="M 103.2317021107853 120.74984581791261 l 1.9087829149223632 12.255755582274366 a33.403507451876216,33.403507451876216 0 0,0 -0.5673424996538495,0.08337980993714926 l -1.6981153096608281 -12.286716465510398" fill="#ff770a" stroke="none" /><path d="M 102.875027216393 120.80226474461374 l 1.7033624205912359 12.324681946357442 a33.441833812374746,33.441833812374746 0 0,0 -0.5693427268841398,0.07371281463364268 l -1.491541871816321 -12.352106357191479" fill="#ff770b" stroke="none" /><path d="M 102.51750503828377 120.84855314841334 l 1.2507366959457649 10.357894059220135 a31.43313527299503,31.43313527299503 0 0,0 -0.5362554223066514,0.06008853859123307 l -1.0727453720383142 -10.37783835831834" fill="#ff5a08" stroke="none" /><path d="M 102.15924093988457 120.88869738790638 l 1.7732593605150704 17.154675741768735 a38.246082122177285,38.246082122177285 0 0,0 -0.6536445510696185,0.061900818577970675 l -1.4785152460604365 -17.182588315851888" fill="#ffba11" stroke="none" /><path d="M 101.80034050326958 120.92268563240118 l 3.492516934628854 40.588340792405724 a61.738324496954164,61.738324496954164 0 0,0 -1.0566984778491866,0.08179514521377361 l -2.7952494620044317 -40.64231370461455" fill="#30ff33" stroke="none" /><path d="M 101.44090949804482 120.95050786540614 l 1.535936977589502 22.33218656232089 a43.38494268595371,43.38494268595371 0 0,0 -0.7434436503785591,0.04472372387333351 l -1.1523489750784777 -22.355262264018915" fill="#fffe18" stroke="none" /><path d="M 101.08105385017728 120.97215588758144 l 0.22883341081764497 4.439307036525155 a25.445200973459826,25.445200973459826 0 0,0 -0.43641456699880593,0.01874151928323668 l -0.1525930832180095 -4.442581124234223" fill="#ff0000" stroke="none" /><path d="M 100.72087961077811 120.9876233191556 l 0.5664270363339604 16.490905136755185 a37.500630043030135,37.500630043030135 0 0,0 -0.64355846578413,0.016575783219561716 l -0.28325525647908656 -16.498198637324794" fill="#ffb010" stroke="none" /><line stroke="#e1ed5e" stroke-width="0.3" x1="101.45913802915013" x2="101.54496967792366" y1="184.9874750549273" y2="189.98673829345242" /><path d="M 101.47630435890484 185.9873277026323 a86.0,86.0 0 0,1 -42.54439059252881,-10.42667462771756" fill="none" id="id43" stroke="none" /><text fill="#e1ed5e" style="font-size:6.75px; font-family:Arial;" text-anchor="middle"><textPath startOffset="22.145653131862474" xlink:href="#id43">July</textPath></text><path d="M 100.36049292484886 120.99690560180557 l 0.353847818817036 20.609861489573436 a41.61289884752467,41.61289884752467 0 0,0 -0.7143407436658857,0.006131756145665853 l -2.524352059476925e-15 -20.61289884752467" fill="#ffe715" stroke="none" /><path d="M 100.0 121.0 l 1.5350063106845214e-15 12.534277734227146 a33.534277734227146,33.534277734227146 0 0,0 -0.5756604696716802,-0.004941352784403396 l 0.21516754482282646 -12.532430779637178" fill="#ff780b" stroke="none" /><path d="M 99.63950707515114 120.99690560180557 l -1.0814787745465488 62.990716805416696 a84.0,84.0 0 0,0 -1.4415467437170244,-0.03712913059981027 l 2.1626388323343173 -62.962869957466836" fill="#4dd2ff" stroke="none" /><path d="M 99.27912038922189 120.98762331915562 l -0.7072913235150954 20.59201516161497 a41.60415854706279,41.60415854706279 0 0,0 -0.7135593409776406,-0.03064330835846058 l 1.0606764250935747 -20.576839284830683" fill="#ffe715" stroke="none" /><line stroke="#e1ed5e" stroke-width="0.3" x1="58.13341422392154" x2="55.67067388415222" y1="173.97424548756322" y2="178.32567169271397" /><path d="M 57.64086615596768 174.84453072859336 a86.0,86.0 0 0,1 -31.369924170532247,-30.572349798747897" fill="none" id="id44" stroke="none" /><text fill="#e1ed5e" style="font-size:6.75px; font-family:Arial;" text-anchor="middle"><textPath startOffset="22.145653131862474" xlink:href="#id44">August</textPath></text><line stroke="#e1ed5e" stroke-width="0.3" x1="26.387840678322732" x2="22.057713659400548" y1="142.50000000000003" y2="145.00000000000006" /><path d="M 25.521815274538298 143.00000000000003 a86.0,86.0 0 0,1 -11.493303480769221,-40.785679425670985" fill="none" id="id45" stroke="none" /><text fill="#e1ed5e" style="font-size:6.75px; font-family:Arial;" text-anchor="middle"><textPath startOffset="21.40746469413373" xlink:href="#id45">September</textPath></text><line stroke="#e1ed5e" stroke-width="0.3" x1="15.003131293944662" x2="10.003315487706104" y1="100.72959589197737" y2="100.7725132973878" /><path d="M 14.003168132696942 100.73817937305945 a86.0,86.0 0 0,1 10.791469493833604,-42.45332614584628" fill="none" id="id46" stroke="none" /><text fill="#e1ed5e" style="font-size:6.75px; font-family:Arial;" text-anchor="middle"><textPath startOffset="22.145653131862435" xlink:href="#id46">October</textPath></text><line stroke="#e1ed5e" stroke-width="0.3" x1="26.387840678322718" x2="22.05771365940052" y1="57.49999999999999" y2="54.99999999999999" /><path d="M 25.521815274538284 56.99999999999999 a86.0,86.0 0 0,1 29.574782752854787,-30.34633250058573" fill="none" id="id47" stroke="none" /><text fill="#e1ed5e" style="font-size:6.75px; font-family:Arial;" text-anchor="middle"><textPath startOffset="21.40746469413373" xlink:href="#id47">November</textPath></text><line stroke="#e1ed5e" stroke-width="0.3" x1="56.869717070023135" x2="54.33264160355391" y1="26.7553504044142" y2="22.446841604673864" /><path d="M 56.362301976729285 25.89364864446614 a86.0,86.0 0 0,1 42.16139366436587,-11.88097634709845" fill="none" id="id48" stroke="none" /><text fill="#e1ed5e" style="font-size:6.75px; font-family:Arial;" text-anchor="middle"><textPath startOffset="22.145653131862474" xlink:href="#id48">December</textPath></text></svg>