<?xml version="1.0" encoding="utf-8" ?>
<svg baseProfile="full" height="200mm" version="1.1" viewBox="0,0,200,200" width="200mm" xmlns="http://www.w3.org/2000/svg" xmlns:ev="http://www.w3.org/2001/xml-events" xmlns:xlink="http://www.w3.org/1999/xlink"><defs /><rect fill="#1a1a1a" height="200" width="200" x="0" y="0" /><text alignment-baseline="middle" fill="#e1ed5e" style="dominant-baseline: central; font-size:9.0px; font-family:Arial;" text-anchor="middle" x="100.0" y="100.0">2024</text><line stroke="#e1ed5e" stroke-width="0.3" x1="100.0" x2="100.0" y1="15.0" y2="10.0" /><path d="M 100.0 14.0 a86.0,86.0 0 0,1 42.35913384403234,11.155469271406648" fill="none" id="id37" stroke="none" /><text fill="#e1ed5e" style="font-size:6.75px; font-family:Arial;" text-anchor="middle"><textPath startOffset="22.145653131862478" xlink:href="#id37">January</textPath></text><line stroke="#e1ed5e" stroke-width="0.3" x1="143.13028292997686" x2="145.6673583964461" y1="26.7553504044142" y2="22.446841604673864" /><path d="M 143.63769802327073 25.89364864446614 a86.0,86.0 0 0,1 29.32050498858742,28.57503671076993" fill="none" id="id38" stroke="none" /><text fill="#e1ed5e" style="font-size:6.75px; font-family:Arial;" text-anchor="middle"><textPath startOffset="20.669276256404974" xlink:href="#id38">February</textPath></text><line stroke="#e1ed5e" stroke-width="0.3" x1="172.87174338648825" x2="177.1583165268699" y1="56.24261187166439" y2="53.66864786411523" /><path d="M 173.72905801456457 55.72781907015455 a86.0,86.0 0 0,1 12.242430191666344,42.057860355516425" fill="none" id="id39" stroke="none" /><text fill="#e1ed5e" style="font-size:6.75px; font-family:Arial;" text-anchor="middle"><textPath startOffset="22.145653131862474" xlink:href="#id39">March</textPath></text><line stroke="#e1ed5e" stroke-width="0.3" x1="184.99686870605535" x2="189.99668451229388" y1="99.2704041080226" y2="99.22748670261217" /><path d="M 185.99683186730306 99.26182062694052 a86.0,86.0 0 0,1 -10.086455211305974,41.156179273409016" fill="none" id="id40" stroke="none" /><text fill="#e1ed5e" style="font-size:6.75px; font-family:Arial;" text-anchor="middle"><textPath startOffset="21.40746469413373" xlink:href="#id40">April</textPath></text><path d="M 120.51834098615036 104.47187691870673 l 29.99951615828448 6.5382549189115355 a51.70374158170047,51.70374158170047 0 0,0 -0.19644747595471712,0.8655838260483557 l -29.8828578207721 -7.052273078898908" fill="#b3ff20" stroke="none" /><path d="M 120.43855184770803 104.8234425847677 l 34.11897031086254 8.05198409222395 a56.056220316727625,56.056220316727625 0 0,0 -0.22906299616789838,0.9346551923041566 l -33.97571978817834 -8.636495109136206" fill="#7dff26" stroke="none" /><path d="M 120.35273937422433 105.17358676015961 l 24.1827114300758 6.147150679767832 a45.951773355617206,45.951773355617206 0 0,0 -0.20089791284393227,0.7628420976385967 l -24.073624036427137 -6.561373281779232" fill="#ffff18" stroke="none" /><path d="M 120.26092885502905 105.52220625578681 l 18.175833688551187 4.953904296156908 a39.83884545425632,39.83884545425632 0 0,0 -0.18550011345356945,0.6582744615942664 l -18.088115083023037 -5.265186681654184" fill="#ffa80f" stroke="none" /><path d="M 120.05942366710727 106.21446072829308 l 21.56893685104661 6.6821117713195 a43.5802935013884,43.5802935013884 0 0,0 -0.2275208506921605,0.7127058242473779 l -21.451051284577193 -7.0513866292582605" fill="#ffde14" stroke="none" /><path d="M 119.94978838288452 106.5578916946017 l 29.961429553735037 9.848917003921782 a52.53868144126458,52.53868144126458 0 0,0 -0.28899922084911855,0.8543748446441598 l -29.787944911313552 -10.361793523040102" fill="#a8ff21" stroke="none" /><path d="M 119.83427380445688 106.89939002012753 l 18.754725481915045 6.523867074532368 a40.85700303439975,40.85700303439975 0 0,0 -0.2361142352747071,0.6604535389151113 l -18.639971076596392 -6.8448555698284" fill="#ffb711" stroke="none" /><path d="M 119.71291397450082 107.23885506374661 l 23.170707516534886 8.508604747812653 a45.68355812218543,45.68355812218543 0 0,0 -0.2766450879676942,0.7338339632479481 l -23.021231744752754 -8.90510699125476" fill="#fffb17" stroke="none" /><path d="M 119.58574465831526 107.57618678355244 l 48.855608461211354 18.898398890802312 a73.38339392165292,73.38339392165292 0 0,0 -0.46455645825844716,1.1709857455505817 l -48.52399332798678 -19.73428565356646" fill="#3effb7" stroke="none" /><path d="M 119.4528033332814 107.91128576633889 l 17.204929843760812 6.9970951873517855 a39.57333981785702,39.57333981785702 0 0,0 -0.2613237846719996,0.6270819516293257 l -17.082280214552327 -7.2914096484223885" fill="#ffa40f" stroke="none" /><path d="M 119.31412917781788 108.2440532568976 l 22.81371585058396 9.737818709214636 a45.80505480995187,45.80505480995187 0 0,0 -0.3148903784244222,0.7205308095106424 l -22.64319159014257 -10.128011588501124" fill="#fffd17" stroke="none" /><path d="M 119.16976305983485 108.57439118712176 l 28.185604378028383 12.607062331877838 a51.876630560904566,51.876630560904566 0 0,0 -0.37058573786241195,0.8097967173067954 l -27.965034175310915 -13.089048031399322" fill="#b1ff20" stroke="none" /><path d="M 118.5362547648365 109.86951160357373 l 16.440422412623153 8.753598924246816 a39.62560021132357,39.62560021132357 0 0,0 -0.32484435003156004,0.5976770160764038 l -16.287732712976254 -9.034530773797824" fill="#ffa50f" stroke="none" /><line stroke="#e1ed5e" stroke-width="0.3" x1="174.33088141563837" x2="178.70328620479359" y1="141.23008692659167" y2="143.65538615756765" /><path d="M 175.20536237346943 141.71514677278685 a86.0,86.0 0 0,1 -30.301960400862466,31.631185727798858" fill="none" id="id41" stroke="none" /><text fill="#e1ed5e" style="font-size:6.75px; font-family:Arial;" text-anchor="middle"><textPath startOffset="22.145653131862474" xlink:href="#id41">May</textPath></text><path d="M 118.18653347947321 110.5 l 26.980446973414782 15.57716832295744 a52.154336645914896,52.154336645914896 0 0,0 -0.45430472872763944,0.7715087498799229 l -26.709068534557378 -16.038028241130913" fill="#adff20" stroke="none" /><path d="M 117.81537515405839 111.11811171558189 l 47.780299740549765 29.81844085379285 a77.32136768800916,77.32136768800916 0 0,0 -0.7123960336628257,1.120004890754037 l -47.261386015261046 -30.63425941922556" fill="#44ffe4" stroke="none" /><path d="M 117.62189284568427 111.42229804090321 l 46.55667168298502 30.177472103161254 a76.48156000631502,76.48156000631502 0 0,0 -0.7235722307844166,1.0955805802818137 l -46.031775013279876 -30.97223256178213" fill="#42ffdb" stroke="none" /><path d="M 117.423217284605 111.72311816256416 l 15.914650548819608 10.70808713753342 a40.18174215852285,40.18174215852285 0 0,0 -0.38997387831178476,0.5689835429674442 l -15.728486933692503 -10.979705415570908" fill="#ffad10" stroke="none" /><path d="M 117.21940702142032 112.02048342749411 l 26.238992530110192 18.316854608871168 a52.99987330846332,52.99987330846332 0 0,0 -0.5271844435220443,0.7415509409303632 l -25.920692988058185 -18.764582776511034" fill="#a2ff22" stroke="none" /><path d="M 116.79662413953412 112.60449989151573 l 14.865494151504555 11.155343946701189 a39.58560235606097,39.58560235606097 0 0,0 -0.41253480004108245,0.5400212957987677 l -14.671807374109168 -11.408886155740834" fill="#ffa50f" stroke="none" /><path d="M 116.35404254752997 113.17365903436017 l 33.69401496970515 27.141513385420616 a64.2660189251297,64.2660189251297 0 0,0 -0.69943824000995,0.8532009257451255 l -33.22312991045658 -27.715916592864236" fill="#31ff43" stroke="none" /><path d="M 116.1254893667686 113.45245675266167 l 23.657104341431047 19.73559783569406 a51.80831718470854,51.80831718470854 0 0,0 -0.5755791454638232,0.6780307860832083 l -23.31483063246011 -20.138795404226823" fill="#b2ff20" stroke="none" /><path d="M 115.89218393027572 113.72728997021213 l 37.35351188638313 32.26507390801702 a70.35909079932456,70.35909079932456 0 0,0 -0.7973659600082156,0.9072560920389285 l -36.794134862416335 -32.90154227786724" fill="#3aff92" stroke="none" /><path d="M 115.6541949942343 113.99807769240083 l 23.10265153579288 20.65853346132477 a51.9920556394207,51.9920556394207 0 0,0 -0.6006377255276366,0.6602060765975404 l -22.74461610942336 -21.05207711347998" fill="#afff20" stroke="none" /><path d="M 115.41159269507618 114.26474011684316 l 13.659578068717334 12.643101534745039 a39.612686249793605,39.612686249793605 0 0,0 -0.46619258650820755,0.49508037146654865 l -13.440529648472866 -12.875723366156086" fill="#ffa50f" stroke="none" /><path d="M 115.16444852881244 114.52719865689866 l 35.81035318794581 34.30550829109067 a70.59081865179795,70.59081865179795 0 0,0 -0.8457896043029595,0.8678546440121786 l -35.21617678249204 -34.91518562717059" fill="#3aff95" stroke="none" /><path d="M 114.91283532996324 114.78537596483092 l 17.62675431034181 17.476099195869676 a45.82169435435523,45.82169435435523 0 0,0 -0.5586059041928625,0.5538315234441825 l -17.324156486018982 -17.77611072954252" fill="#fffd18" stroke="none" /><path d="M 114.65682725009322 115.03919595460226 l 21.59370131294555 22.15703984833927 a51.93901018509805,51.93901018509805 0 0,0 -0.6438644480048958,0.616807576385637 l -21.210164379075344 -22.524459555030486" fill="#b0ff20" stroke="none" /><path d="M 114.39649973595853 115.28858382429668 l 43.18949920787558 45.86575147289004 a84.0,84.0 0 0,0 -1.058280914744131,0.9795290154704817 l -42.39578852181748 -46.6003982344929" fill="#4dd2ff" stroke="none" /><path d="M 114.13192950727249 115.5334660781643 l 16.942902897863608 18.62321824448379 a46.17709706038623,46.17709706038623 0 0,0 -0.5909238542808175,0.5284077543152154 l -16.62071401675941 -18.911321528682393" fill="#fcff18" stroke="none" /><path d="M 113.86319453409587 115.77377054828091 l 21.468631890805426 24.42736214933714 a53.5207345679303,53.5207345679303 0 0,0 -0.6953121261093744,0.6005940540824376 l -21.046140284933198 -24.792300335884295" fill="#9cff22" stroke="none" /><path d="M 113.31354834802062 116.24036423190432 l 20.187374228338236 24.625314137437616 a52.84236446312459,52.84236446312459 0 0,0 -0.7064501483632957,0.5690662325393544 l -19.761673309619688 -24.968228663770375" fill="#a4ff21" stroke="none" /><path d="M 112.45986205192187 116.90419585922612 l 21.986771887791488 29.829278747594635 a58.05676737989269,58.05676737989269 0 0,0 -0.8073180262490401,0.5844359924134294 l -21.47147285116848 -30.20231551138114" fill="#65ff29" stroke="none" /><path d="M 112.16784306229584 117.11559508785304 l 17.967464406341445 25.2734888147323 a52.00933753019476,52.00933753019476 0 0,0 -0.7321054989869736,0.5110664964712819 l -17.530963816180712 -25.578200127008703" fill="#afff20" stroke="none" /><path d="M 111.8722381534696 117.32195027204791 l 5.82480489658485 8.498564420520605 a31.303103866943086,31.303103866943086 0 0,0 -0.4458511695565584,0.299988564583147 l -5.678057438931289 -8.597302659160874" fill="#ff2503" stroke="none" /><path d="M 111.5731344415666 117.5232005979908 l 14.24747567876667 21.572494089183664 a46.852718705097764,46.852718705097764 0 0,0 -0.6749343131482298,0.4374842674576521 l -13.875055733361428 -21.813892198345208" fill="#f3ff19" stroke="none" /><path d="M 111.27062007382361 117.71928675628689 l 6.647921992534194 10.451637562757144 a33.386750766930604,33.386750766930604 0 0,0 -0.48623171465166076,0.30344455148476457 l -6.467526149092818 -10.564217911083457" fill="#ff4606" stroke="none" /><path d="M 110.96478420261333 117.91015095944535 l 7.217401521493181 11.789082976577388 a34.822928855748295,34.822928855748295 0 0,0 -0.5125060300020298,0.30774514552192767 l -7.013962734933714 -11.911242122635239" fill="#ff5d08" stroke="none" /><line stroke="#e1ed5e" stroke-width="0.3" x1="143.1302829299769" x2="145.66735839644613" y1="173.24464959558577" y2="177.55315839532614" /><path d="M 143.63769802327073 174.10635135553383 a86.0,86.0 0 0,1 -40.68552437913181,11.842963189579606" fill="none" id="id42" stroke="none" /><text fill="#e1ed5e" style="font-size:6.75px; font-family:Arial;" text-anchor="middle"><textPath startOffset="21.407464694133747" xlink:href="#id42">June</textPath></text><path d="M 110.34350942703117 118.27599006163325 l 3.9634574477482234 7.003049539013546 a29.046843964312263,29.046843964312263 0 0,0 -0.43605649407011954,0.2418731866622701 l -3.842656765522009 -7.07005564110896" fill="#ff0000" stroke="none" /><path d="M 108.4095320186766 119.2426549942271 l 7.536880641209939 17.24585786573832 a39.82084438395614,39.82084438395614 0 0,0 -0.6287235845150656,0.26836471201417866 l -7.239721981524443 -17.3726972274119" fill="#ffa80f" stroke="none" /><path d="M 108.07796709384702 119.3841803445677 l 10.24274673505514 24.57886342310975 a47.627699634973446,47.627699634973446 0 0,0 -0.7573837055648119,0.3080213595353919 l -9.819308568299887 -24.75107203922443" fill="#e8ff1a" stroke="none" /><path d="M 107.74402155503746 119.51999308798841 l 6.817193546183343 17.183781056809597 a39.48665624861598,39.48665624861598 0 0,0 -0.6322147186746615,0.24455423470236826 l -6.521206565015152 -17.29827517965001" fill="#ffa30f" stroke="none" /><path d="M 107.407793817531 119.65005319985036 l 10.917539799305121 28.9600713994132 a51.949610833232164,51.949610833232164 0 0,0 -0.8371577082529548,0.3074159063130031 l -10.418792939398038 -29.143218154734924" fill="#b0ff20" stroke="none" /><path d="M 107.06938296918513 119.77432235084164 l 20.67363385584212 57.82783332161419 a82.41219295447618,82.41219295447618 0 0,0 -1.3362321911481458,0.4648109194756155 l -19.67789589264895 -58.1742026736584" fill="#4be2ff" stroke="none" /><path d="M 106.72888874123015 119.89276391827305 l 4.730140688661327 13.983820455107594 a35.76216330539718,35.76216330539718 0 0,0 -0.5832251326012896,0.19171768540914919 l -4.489392818412303 -14.062959061918763" fill="#ff6b09" stroke="none" /><path d="M 106.38641147887787 120.00534299687104 l 3.845642232047064 12.046419518974021 a33.64536228836573,33.64536228836573 0 0,0 -0.5517188411631686,0.17092390730497642 l -3.638282758012271 -12.110660014085642" fill="#ff4a06" stroke="none" /><path d="M 106.0420521117495 120.11202640906438 l 12.48971771381804 41.57420820876263 a64.40976660564309,64.40976660564309 0 0,0 -1.0616569435895664,0.3090328635248393 l -11.774200757846867 -41.78248476658998" fill="#32ff45" stroke="none" /><path d="M 105.69591212413111 120.21278271476187 l 16.880996325675085 59.904700652595594 a83.23777950107589,83.23777950107589 0 0,0 -1.378649897874808,0.37575716024956457 l -15.850165026865582 -60.185658306989296" fill="#4cdaff" stroke="none" /><path d="M 105.3480935250658 120.30758222061773 l 9.502255985430162 36.081613719181476 a58.31187099828777,58.31187099828777 0 0,0 -0.970183765186915,0.24661691923640816 l -8.88146692701785 -36.239415870253154" fill="#62ff29" stroke="none" /><path d="M 104.9986988182912 120.39639698878246 l 4.507481800346032 18.392063927347774 a39.936351488290924,39.936351488290924 0 0,0 -0.667256268294467,0.15747066247287164 l -4.191093378311686 -18.466730733466868" fill="#ffaa0f" stroke="none" /><path d="M 104.64783097203109 120.47920084513623 l 12.510775579019576 55.124785594172444 a77.52664409278225,77.52664409278225 0 0,0 -1.300371322041427,0.2834098772756685 l -11.562641840359012 -55.33142692958183" fill="#44ffe7" stroke="none" /><path d="M 104.29559338865022 120.5559693870025 l 3.136490616254839 15.009243021163682 a36.333458496184264,36.333458496184264 0 0,0 -0.6116192986293422,0.12234098912333671 l -2.878374832094538 -15.06087340694988" fill="#ff740a" stroke="none" /><line stroke="#e1ed5e" stroke-width="0.3" x1="101.45913802915013" x2="101.54496967792366" y1="184.9874750549273" y2="189.98673829345242" /><path d="M 101.47630435890484 185.9873277026323 a86.0,86.0 0 0,1 -42.54439059252881,-10.42667462771756" fill="none" id="id43" stroke="none" /><text fill="#e1ed5e" style="font-size:6.75px; font-family:Arial;" text-anchor="middle"><textPath startOffset="22.145653131862474" xlink:href="#id43">July</textPath></text><line stroke="#e1ed5e" stroke-width="0.3" x1="58.13341422392154" x2="55.67067388415222" y1="173.97424548756322" y2="178.32567169271397" /><path d="M 57.64086615596768 174.84453072859336 a86.0,86.0 0 0,1 -31.369924170532247,-30.572349798747897" fill="none" id="id44" stroke="none" /><text fill="#e1ed5e" style="font-size:6.75px; font-family:Arial;" text-anchor="middle"><textPath startOffset="22.145653131862474" xlink:href="#id44">August</textPath></text><line stroke="#e1ed5e" stroke-width="0.3" x1="26.387840678322732" x2="22.057713659400548" y1="142.50000000000003" y2="145.00000000000006" /><path d="M 25.521815274538298 143.00000000000003 a86.0,86.0 0 0,1 -11.493303480769221,-40.785679425670985" fill="none" id="id45" stroke="none" /><text fill="#e1ed5e" style="font-size:6.75px; font-family:Arial;" text-anchor="middle"><textPath startOffset="21.40746469413373" xlink:href="#id45">September</textPath></text><line stroke="#e1ed5e" stroke-width="0.3" x1="15.003131293944662" x2="10.003315487706104" y1="100.72959589197737" y2="100.7725132973878" /><path d="M 14.003168132696942 100.73817937305945 a86.0,86.0 0 0,1 10.791469493833604,-42.45332614584628" fill="none" id="id46" stroke="none" /><text fill="#e1ed5e" style="font-size:6.75px; font-family:Arial;" text-anchor="middle"><textPath startOffset="22.145653131862435" xlink:href="#id46">October</textPath></text><line stroke="#e1ed5e" stroke-width="0.3" x1="26.387840678322718" x2="22.05771365940052" y1="57.49999999999999" y2="54.99999999999999" /><path d="M 25.521815274538284 56.99999999999999 a86.0,86.0 0 0,1 29.574782752854787,-30.34633250058573" fill="none" id="id47" stroke="none" /><text fill="#e1ed5e" style="font-size:6.75px; font-family:Arial;" text-anchor="middle"><textPath startOffset="21.40746469413373" xlink:href="#id47">November</textPath></text><line stroke="#e1ed5e" stroke-width="0.3" x1="56.869717070023135" x2="54.33264160355391" y1="26.7553504044142" y2="22.446841604673864" /><path d="M 56.362301976729285 25.89364864446614 a86.0,86.0 0 0,1 42.16139366436587,-11.88097634709845" fill="none" id="id48" stroke="none" /><text fill="#e1ed5e" style="font-size:6.75px; font-family:Arial;" text-anchor="middle"><textPath startOffset="22.145653131862474" xlink:href="#id48">December</textPath></text></svg>